<?xml version="1.0" encoding="UTF-8" standalone="no"?>
<!DOCTYPE svg PUBLIC "-//W3C//DTD SVG 1.1//EN" "http://www.w3.org/Graphics/SVG/1.1/DTD/svg11.dtd">
<svg width="100%" height="100%" viewBox="0 0 500 500" version="1.1" xmlns="http://www.w3.org/2000/svg" xmlns:xlink="http://www.w3.org/1999/xlink" xml:space="preserve" xmlns:serif="http://www.serif.com/" style="fill-rule:evenodd;clip-rule:evenodd;stroke-linejoin:round;stroke-miterlimit:2;">
    <g transform="matrix(1.16985,0,0,1.09243,-41.951,-25.9334)">
        <rect x="1.494" y="0.689" width="498.317" height="497.619" style="fill:rgb(235,235,235);"/>
    </g>
    <g transform="matrix(0.823036,0,0,0.823036,250,250)">
        <g transform="matrix(1,0,0,1,-256,-256)">
            <path d="M390.4,448L384,448L384,404.48C384,367.04 372.17,335.02 348.84,309.32C328.28,286.66 302.49,273.06 284.3,265.6C283.705,265.401 283.124,265.164 282.56,264.89C273.927,261.387 265.05,258.519 256,256.31C246.949,258.519 238.072,261.387 229.44,264.89C228.876,265.164 228.295,265.401 227.7,265.6C209.51,273.06 183.7,286.66 163.16,309.31C139.83,335 128,367 128,404.48L128,448L121.6,448C111.071,448.011 102.411,456.671 102.4,467.2L102.4,480C102.411,490.529 111.071,499.189 121.6,499.2L390.4,499.2C400.929,499.189 409.589,490.529 409.6,480L409.6,467.2C409.589,456.671 400.929,448.011 390.4,448Z" style="fill:rgb(217,228,232);fill-rule:nonzero;"/>
            <path d="M390.4,12.8L121.6,12.8C111.071,12.811 102.411,21.471 102.4,32L102.4,44.8C102.411,55.329 111.071,63.989 121.6,64L128,64L128,107.52C128,145.12 139.94,177.25 163.47,203.01C184.33,225.84 210.47,239.45 228.81,246.85C237.641,250.469 246.73,253.423 256,255.69C265.274,253.424 274.366,250.469 283.2,246.85C301.49,239.45 327.67,225.85 348.53,203.01C372.07,177.24 384,145.11 384,107.52L384,64L390.4,64C400.929,63.989 409.589,55.329 409.6,44.8L409.6,32C409.589,21.471 400.929,12.811 390.4,12.8Z" style="fill:rgb(217,228,232);fill-rule:nonzero;"/>
            <path d="M256,255.69C246.729,253.424 237.641,250.469 228.81,246.85C203.81,236.75 171.03,218.09 149.74,185.27C176.88,173.34 215.42,166.4 256,166.4C296.58,166.4 335.12,173.34 362.26,185.27C341,218.1 308.17,236.75 283.2,246.85C274.366,250.468 265.274,253.423 256,255.69Z" style="fill:rgb(121,211,211);fill-rule:nonzero;"/>
            <g opacity="0.14">
                <path d="M332.8,0L332.8,107.52C332.8,200.39 265.54,241.92 224,258.72C242.56,266.25 256,268.8 256,268.8C256,268.8 269.44,266.25 288,258.72C329.54,241.92 396.8,200.39 396.8,107.52L396.8,0L332.8,0Z" style="fill:rgb(23,41,45);fill-rule:nonzero;"/>
            </g>
            <path d="M159.16,448L225.86,405.56C244.223,393.872 267.797,393.872 286.16,405.56L352.84,448L159.16,448Z" style="fill:rgb(121,211,211);fill-rule:nonzero;"/>
            <g opacity="0.14">
                <path d="M332.8,512L332.8,404.48C332.8,311.61 265.54,270.08 224,253.28C242.56,245.75 256,243.2 256,243.2C256,243.2 269.44,245.75 288,253.28C329.54,270.08 396.8,311.61 396.8,404.48L396.8,512L332.8,512Z" style="fill:rgb(23,41,45);fill-rule:nonzero;"/>
            </g>
            <path d="M296.66,255L298.91,254L299.57,253.69L302.06,252.5L302.25,252.41L305,251L305.44,250.77L307.9,249.5L308.36,249.26C310.287,248.247 312.227,247.183 314.18,246.07L314.54,245.86C315.5,245.313 316.46,244.753 317.42,244.18C319.467,242.967 321.52,241.697 323.58,240.37L323.76,240.25C359.76,216.98 396.7,176.37 396.7,107.57L396.7,76.16C411.584,73.171 422.393,59.981 422.4,44.8L422.4,32C422.4,14.445 407.955,0 390.4,0L121.6,0C104.045,0 89.6,14.445 89.6,32L89.6,44.8C89.597,59.951 100.355,73.13 115.2,76.16L115.2,107.52C115.2,176.32 152.11,216.93 188.13,240.2L188.33,240.33C190.383,241.663 192.43,242.93 194.47,244.13L194.53,244.13C195.49,244.697 196.443,245.253 197.39,245.8L197.76,246.01C199.713,247.123 201.65,248.187 203.57,249.2L204.04,249.45L206.49,250.72L206.94,250.95L209.74,252.34L209.94,252.44L212.42,253.63L213.09,253.94L215.33,254.94L215.74,255.13L217.56,255.94C175.86,274.29 115.19,316.2 115.19,404.42L115.19,435.78C100.327,438.819 89.567,452.03 89.6,467.2L89.6,480C89.6,497.555 104.045,512 121.6,512L390.4,512C407.955,512 422.4,497.555 422.4,480L422.4,467.2C422.403,452.049 411.645,438.87 396.8,435.84L396.8,404.48C396.8,316.26 336.12,274.35 294.43,256L296.26,255.19L296.66,255ZM331.45,202.06C330.27,203.16 329.08,204.233 327.88,205.28L327.77,205.38C315.961,215.456 302.842,223.886 288.77,230.44L288.34,230.64C287.307,231.127 286.29,231.597 285.29,232.05L283.95,232.64L281.83,233.57C280.67,234.07 279.51,234.57 278.38,235.01C273.6,236.95 269.2,238.51 265.38,239.75C261.56,240.99 258.38,241.89 255.98,242.52C248.369,240.489 240.894,237.977 233.6,235C232.49,234.55 231.35,234.08 230.21,233.59L228.03,232.59L226.7,232C225.68,231.54 224.643,231.063 223.59,230.57L223.22,230.4C209.147,223.84 196.027,215.403 184.22,205.32C182.993,204.26 181.78,203.167 180.58,202.04L179.81,201.31C178.81,200.4 177.89,199.48 176.94,198.53C176.47,198.06 176.01,197.53 175.54,197.08C174.81,196.32 174.08,195.57 173.36,194.79C172.36,193.703 171.36,192.597 170.36,191.47L170.14,191.21C194.02,183.53 224.26,179.21 255.99,179.21C287.72,179.21 317.99,183.55 341.84,191.21L341.63,191.46C340.657,192.593 339.657,193.703 338.63,194.79C337.92,195.56 337.2,196.3 336.48,197.05C336,197.55 335.48,198.05 335.04,198.53C334.11,199.46 333.17,200.37 332.22,201.27L331.45,202.06ZM140.8,107.52L140.8,76.8L371.2,76.8L371.2,107.52C371.2,130.52 366.35,151.15 356.76,169.31C329.76,159.53 294.57,153.6 256,153.6C217.43,153.6 182.21,159.53 155.24,169.31C145.65,151.15 140.8,130.47 140.8,107.52ZM115.2,32C115.205,28.491 118.091,25.605 121.6,25.6L390.4,25.6C393.909,25.605 396.795,28.491 396.8,32L396.8,44.8C396.795,48.309 393.909,51.195 390.4,51.2L121.6,51.2C118.091,51.195 115.205,48.309 115.2,44.8L115.2,32ZM396.8,480C396.795,483.509 393.909,486.395 390.4,486.4L121.6,486.4C118.091,486.395 115.205,483.509 115.2,480L115.2,467.2C115.205,463.691 118.091,460.805 121.6,460.8L390.4,460.8C393.909,460.805 396.795,463.691 396.8,467.2L396.8,480ZM203.11,435.2L232.72,416.36C246.897,407.34 265.093,407.34 279.27,416.36L308.88,435.2L203.11,435.2ZM339.36,317.92C360.49,341.2 371.2,370.32 371.2,404.48L371.2,435.2L356.57,435.2L293,394.76C270.458,380.439 241.542,380.439 219,394.76L155.43,435.2L140.8,435.2L140.8,404.48C140.8,370.32 151.51,341.2 172.64,317.92C191.5,297.14 215.34,284.54 232.28,277.56C233.047,277.287 233.793,276.98 234.52,276.64C241.528,273.825 248.701,271.441 256,269.5C263.295,271.441 270.465,273.825 277.47,276.64C278.203,276.98 278.95,277.287 279.71,277.56C296.66,284.54 320.51,297.14 339.36,317.92Z" style="fill:rgb(20,31,56);fill-rule:nonzero;"/>
            <circle cx="256" cy="307.2" r="12.8" style="fill:rgb(20,31,56);"/>
            <circle cx="256" cy="345.6" r="12.8" style="fill:rgb(20,31,56);"/>
        </g>
    </g>
</svg>
